<svg version="1.1" viewBox="0.0 0.0 960.0 720.0" fill="none" stroke="none" stroke-linecap="square" stroke-miterlimit="10" xmlns:xlink="http://www.w3.org/1999/xlink" xmlns="http://www.w3.org/2000/svg"><clipPath id="p.0"><path d="m0 0l960.0 0l0 720.0l-960.0 0l0 -720.0z" clip-rule="nonzero"/></clipPath><g clip-path="url(#p.0)"><path fill="#000000" fill-opacity="0.0" d="m0 0l960.0 0l0 720.0l-960.0 0z" fill-rule="evenodd"/><path fill="#000000" d="m42.351707 101.64829l462.4882 0l0 135.74805l-462.4882 0z" fill-rule="evenodd"/><path fill="#ffffff" d="m71.71108 212.98016q-1.828125 0.296875 -4.421875 -0.046875q-2.59375 -0.328125 -5.5625 -1.09375q-1.546875 -0.484375 -2.171875 -1.15625q-0.625 -0.671875 -2.0625 -2.5q-0.953125 -1.4375 -1.203125 -3.265625q-0.234375 -1.828125 0.484375 -3.265625q0.71875 -1.4375 2.453125 -1.71875q0.765625 -0.203125 1.859375 0.328125q1.109375 0.53125 2.359375 1.296875q2.015625 1.15625 4.3125 2.34375q2.3125 1.203125 4.234375 0.921875q1.34375 -0.28125 3.21875 -0.34375q1.875 -0.046875 3.640625 -0.328125q1.78125 -0.28125 2.84375 -1.0625q5.078125 -3.453125 7.578125 -5.515625q2.5 -2.0625 2.5 -2.0625q0.1875 -0.390625 0.703125 -0.625q0.53125 -0.234375 1.3125 -0.53125q0.578125 -0.578125 1.8125 -1.859375q1.25 -1.296875 2.453125 -2.546875q1.203125 -1.25 1.484375 -1.4375q0.203125 -0.875 0.390625 -1.390625q0.1875 -0.53125 0.1875 -1.109375q0.765625 -0.765625 2.0625 -3.21875q1.296875 -2.453125 2.640625 -5.46875q1.34375 -3.03125 1.921875 -5.53125q1.25 -5.265625 0.859375 -9.578125q-0.375 -4.328125 -2.203125 -7.78125q-1.828125 -3.46875 -4.890625 -6.0625q-1.0625 -0.859375 -2.890625 -1.859375q-1.8125 -1.015625 -3.734375 -1.921875q-1.921875 -0.921875 -3.421875 -1.390625q-1.484375 -0.484375 -1.765625 -0.390625q-0.390625 0.09375 -1.5 2.9375q-1.09375 2.828125 -2.6875 7.25q-1.578125 4.40625 -3.359375 9.453125q-1.765625 5.03125 -3.390625 9.546875q-0.484375 1.828125 -1.203125 3.84375q-0.71875 2.015625 -1.203125 3.5q-0.484375 1.484375 -0.484375 1.96875q-1.046875 1.625 -2.203125 4.984375q-1.15625 3.359375 -1.921875 9.609375q-0.859375 3.265625 -1.25 5.421875q-0.375 2.15625 -0.765625 2.0625q0 0 -0.09375 0.90625q-0.09375 0.921875 -0.390625 1.203125q0 0.578125 -1.15625 0.765625q-1.140625 0.1875 -2.6875 -0.484375q-1.53125 -0.671875 -2.875 -2.578125q-0.28125 -1.0625 -0.4375 -3.125q-0.140625 -2.0625 0.640625 -4.84375q0.46875 -1.828125 1.328125 -4.703125q0.875 -2.890625 1.921875 -5.953125q1.0625 -3.078125 1.96875 -5.671875q0.921875 -2.59375 1.296875 -3.84375q0.671875 -1.625 1.921875 -6.140625q0.765625 -2.5 1.578125 -4.984375q0.828125 -2.5 1.59375 -4.46875q0.765625 -1.96875 1.0625 -2.546875q0.46875 -1.25 1.1875 -4.078125q0.71875 -2.828125 2.265625 -6.484375l0.671875 -3.15625l-1.0625 -0.484375q-1.15625 0.375 -1.78125 0.234375q-0.609375 -0.140625 -0.8125 -0.234375q-0.578125 0.1875 -1.484375 -0.328125q-0.90625 -0.53125 -1.625 -1.390625q-0.71875 -0.875 -0.921875 -1.453125q-0.1875 -0.375 -0.234375 -1.0q-0.046875 -0.625 -0.046875 -0.625q0.09375 -0.578125 1.625 -1.203125q1.546875 -0.625 3.984375 -1.203125q2.453125 -0.578125 5.234375 -0.859375q2.78125 -0.296875 5.1875 -0.09375q2.5 0.1875 6.140625 1.15625q3.65625 0.953125 6.234375 1.90625q3.078125 1.15625 6.625 3.9375q3.5625 2.78125 6.484375 6.625q2.921875 3.84375 3.890625 8.0625q0.28125 1.15625 0.5625 3.265625q0.296875 2.109375 0.34375 4.078125q0.046875 1.96875 -0.421875 2.546875q-0.203125 0.390625 -0.25 0.921875q-0.046875 0.515625 0.34375 0.703125q-0.09375 0.296875 -0.671875 2.171875q-0.578125 1.859375 -1.0625 3.21875q-0.1875 2.484375 -1.296875 5.75q-1.09375 3.265625 -2.390625 6.203125q-1.296875 2.921875 -2.265625 4.546875q-0.375 0 -0.71875 0.15625q-0.328125 0.140625 0.046875 0.234375q0 0.484375 -1.046875 1.828125q-0.390625 0.28125 -1.203125 1.390625q-0.8125 1.09375 -1.296875 1.484375q-0.09375 0.671875 -0.578125 1.109375q-0.484375 0.421875 -0.859375 0.421875q0 0 -0.15625 0q-0.140625 0 -0.140625 0.390625q-0.765625 1.15625 -2.59375 2.984375q-1.8125 1.8125 -4.125 3.734375q-2.296875 1.921875 -4.609375 3.546875q-2.296875 1.640625 -4.21875 2.40625q-0.953125 0.671875 -2.015625 1.09375q-1.0625 0.4375 -2.015625 0.921875q-0.484375 0.375 -2.796875 0.65625q-2.296875 0.296875 -4.84375 0.484375q-2.53125 0.203125 -3.96875 0.484375zm53.077606 -10.84375q-1.25 0 -1.96875 -0.46875q-0.71875 -0.484375 -1.765625 -1.359375q-1.828125 -1.921875 -2.9375 -4.125q-1.09375 -2.203125 -0.8125 -3.84375q0.28125 -0.765625 0.234375 -1.484375q-0.046875 -0.71875 -0.046875 -0.71875q-0.46875 -0.484375 -0.28125 -0.625q0.1875 -0.140625 0.375 -0.53125q0.578125 0 0.390625 -1.046875q-0.1875 -0.765625 0.625 -3.3125q0.8125 -2.546875 2.25 -4.859375q0.578125 -0.953125 1.734375 -2.53125q1.15625 -1.59375 2.546875 -3.171875q1.390625 -1.59375 2.546875 -2.546875q2.3906174 -2.015625 4.4531174 -3.265625q2.0625 -1.25 4.171875 -1.71875q2.125 -0.484375 4.375 -0.484375q2.25 0 3.703125 1.53125q2.203125 0.96875 3.109375 2.59375q0.921875 1.625 1.203125 4.21875q0.28125 2.890625 -0.578125 7.0625q-0.859375 4.171875 -4.703125 9.640625q-2.390625 3.46875 -4.703125 5.390625q-2.296875 1.90625 -5.09375 3.546875q-2.015625 1.34375 -4.3125 1.640625q-2.2968674 0.28125 -4.5156174 0.46875zm9.796867 -11.71875q2.109375 -1.8125 3.015625 -4.015625q0.921875 -2.21875 1.96875 -5.1875q0.390625 -0.578125 0.53125 -1.921875q0.140625 -1.34375 0.046875 -2.640625q-0.09375 -1.296875 -0.671875 -1.484375q-0.859375 -0.671875 -1.734375 -0.328125q-0.859375 0.328125 -2.203125 1.28125q-2.875 2.40625 -5.328125 5.53125q-2.4374924 3.109375 -3.4062424 7.625q-0.28125 2.390625 0.53125 3.59375q0.8124924 1.203125 2.6874924 0.671875q1.875 -0.53125 4.5625 -3.125zm41.751984 12.96875q-0.671875 0.375 -1.78125 -0.296875q-1.09375 -0.671875 -2.15625 -2.015625q-0.671875 -1.140625 -1.015625 -2.34375q-0.328125 -1.203125 -0.328125 -3.609375q0.109375 -1.90625 0.046875 -2.625q-0.046875 -0.734375 -0.859375 -0.109375q-0.8125 0.625 -3.21875 2.9375q-2.390625 2.390625 -4.5625 4.078125q-2.15625 1.671875 -3.5 1.578125q-0.671875 0 -1.828125 -0.859375q-1.140625 -0.859375 -2.203125 -2.15625q-1.046875 -1.296875 -1.53125 -2.453125q-0.578125 -2.296875 -0.046875 -5.9375q0.53125 -3.65625 1.765625 -7.640625q1.25 -3.984375 2.828125 -7.484375q1.59375 -3.515625 3.171875 -5.671875q1.59375 -2.15625 2.75 -2.0625q1.625 0.1875 2.828125 1.578125q1.203125 1.390625 1.875 3.03125q0.375 0.671875 0.328125 1.15625q-0.046875 0.46875 -0.8125 1.140625q-0.859375 1.15625 -2.0625 3.3125q-1.203125 2.15625 -2.40625 4.65625q-1.1875 2.5 -2.109375 4.765625q-0.90625 2.25 -1.296875 3.6875q-0.375 1.4375 0 1.4375q1.34375 0 2.5 -0.71875q1.15625 -0.71875 2.875 -2.359375q2.015625 -2.015625 3.546875 -4.078125q1.546875 -2.0625 3.171875 -4.75q1.25 -1.921875 2.640625 -4.21875q1.390625 -2.3125 1.78125 -3.265625q1.34375 -2.5 2.015625 -3.75q0.671875 -1.25 1.625 -1.53125q0.484375 0 1.34375 0q0.875 0 0.875 0q0.578125 0.09375 1.34375 0.859375q0.765625 0.390625 1.578125 1.0625q0.8125 0.671875 0.8125 1.15625q-0.375 0.953125 -1.203125 2.828125q-0.8125 1.875 -1.1875 2.734375q-1.828125 4.125 -3.515625 8.109375q-1.671875 3.984375 -2.4375 8.109375q-0.1875 1.34375 -0.046875 3.125q0.140625 1.78125 0.53125 2.546875q0.28125 0.578125 0.703125 1.296875q0.4375 0.71875 1.015625 1.203125q0.859375 0.5625 -0.046875 1.4375q-0.90625 0.859375 -2.203125 1.484375q-1.296875 0.625 -1.59375 0.625zm23.144989 18.625q-2.6875 1.046875 -5.625 -0.34375q-2.921875 -1.390625 -5.03125 -4.359375q-0.390625 -0.578125 -1.15625 -2.078125q-0.765625 -1.484375 -1.484375 -3.21875q-0.71875 -1.71875 -1.0625 -2.96875q-0.328125 -1.25 -0.046875 -1.4375q0.390625 -1.046875 1.734375 -1.25q1.34375 -0.1875 2.6875 0.140625q1.34375 0.34375 1.53125 0.921875q0.296875 0.671875 0.578125 1.390625q0.28125 0.71875 0.71875 1.34375q0.4375 0.625 0.8125 1.109375q1.0625 1.625 2.3125 2.25q1.25 0.625 1.921875 0.140625q1.625 -1.25 2.4375 -2.9375q0.828125 -1.671875 2.171875 -5.890625q1.046875 -3.546875 1.8125 -6.140625q0.765625 -2.59375 1.640625 -4.796875q0.28125 -1.15625 0.703125 -1.96875q0.4375 -0.828125 0.828125 -1.203125l0.578125 0q-2.109375 1.34375 -3.5625 2.6875q-1.4375 1.34375 -3.921875 2.390625q-0.578125 0.671875 -2.84375 0.828125q-2.25 0.140625 -4.359375 -0.53125q-1.34375 -0.765625 -2.171875 -1.578125q-0.8125 -0.828125 -1.34375 -1.875q-0.515625 -1.0625 -1.09375 -2.5q-0.671875 -1.4375 -0.203125 -4.703125q0.484375 -3.265625 1.734375 -6.53125q1.15625 -2.390625 3.359375 -5.171875q2.21875 -2.796875 4.703125 -5.046875q2.5 -2.265625 4.515625 -2.828125q0.765625 -0.390625 2.6875 -0.921875q1.921875 -0.53125 3.65625 -0.046875q1.625 0.1875 2.484375 0.71875q0.875 0.53125 2.796875 2.15625q1.234375 1.25 3.0625 3.21875q1.828125 1.96875 2.3125 3.3125q0.671875 1.4375 0.28125 3.125q-0.390625 1.671875 -1.34375 2.921875q-0.859375 1.25 -1.828125 2.5q-0.953125 1.25 -1.4375 3.453125q-0.484375 2.890625 -1.828125 6.484375q-1.34375 3.59375 -2.109375 6.671875l-1.53125 5.953125q-2.40625 8.15625 -5.28125 11.84375q-2.875 3.703125 -4.796875 4.765625zm-2.015625 -33.03125q1.921875 -0.09375 3.3125 -0.421875q1.390625 -0.34375 2.640625 -1.53125q1.25 -1.203125 2.875 -3.703125q1.625 -2.3125 2.296875 -4.21875q0.6875 -1.921875 0.484375 -4.328125q-0.09375 -1.53125 -0.859375 -2.015625q-0.765625 -0.484375 -2.015625 -0.296875q-1.828125 0.296875 -3.265625 1.5q-1.4375 1.203125 -3.359375 3.6875q-1.4375 1.921875 -2.40625 4.609375q-0.953125 2.890625 -0.8125 4.625q0.140625 1.71875 1.109375 2.09375zm37.33461 -27.828125q-0.953125 0.09375 -2.34375 0q-1.390625 -0.109375 -1.6875 -1.828125q-0.09375 -0.671875 0.1875 -1.25q0.296875 -0.578125 0.78125 -1.25q1.15625 -1.921875 2.640625 -4.21875q1.484375 -2.3125 1.96875 -3.75q0 -0.390625 0.09375 -0.671875q-1.640625 0.28125 -3.359375 -1.15625q-1.828125 -1.71875 -1.015625 -4.546875q0.828125 -2.84375 3.3125 -4.5625q1.734375 -1.0625 3.265625 -1.15625q1.53125 -0.09375 3.265625 0.671875q1.625 0.953125 2.6875 2.921875q1.0625 1.96875 0.578125 3.21875q-0.28125 2.203125 -1.015625 4.125q-0.71875 1.921875 -1.296875 3.75q-0.5625 2.109375 -2.34375 4.46875q-1.78125 2.34375 -3.40625 4.265625q0.09375 0.390625 -0.578125 0.484375q-0.671875 0.09375 -1.734375 0.484375zm4.9976196 42.234375q-3.265625 -1.34375 -4.75 -2.828125q-1.484375 -1.5 -1.203125 -2.640625q0.1875 -0.578125 0.671875 -1.0625q0.484375 -0.484375 2.15625 -0.4375q1.6875 0.046875 5.234375 0.921875q1.0625 0 2.109375 -0.09375q1.0625 -0.09375 1.96875 -0.28125q0.921875 -0.203125 1.5 -0.5q0.46875 -0.1875 0.28125 -0.515625q-0.1875 -0.34375 -0.671875 -0.71875q-0.390625 -0.484375 -0.875 -0.625q-0.46875 -0.15625 -0.859375 -0.15625q-0.1875 -0.46875 -0.8125 -0.953125q-0.625 -0.484375 -1.484375 -1.0625q-2.109375 -1.71875 -3.84375 -3.0625q-1.71875 -1.34375 -1.34375 -2.015625q0 -0.390625 0 -0.4375q0 -0.046875 0 -0.046875q-0.671875 0 -1.25 -1.875q-0.578125 -1.875 -0.578125 -3.40625q0 -1.921875 0.8125 -3.828125q0.828125 -1.921875 2.125 -3.65625q1.296875 -1.734375 2.640625 -3.078125q1.828125 -1.71875 3.890625 -3.390625q2.0625 -1.6875 4.5 -3.03125q2.453125 -1.34375 5.4375 -2.109375q1.34375 -0.296875 3.0625 -0.296875q1.734375 0 2.5 0.484375q0.765625 -0.484375 1.90625 0.234375q1.15625 0.71875 2.3125 1.96875q1.15625 1.25 1.734375 2.5q0 1.15625 -0.046875 2.84375q-0.046875 1.671875 -0.25 2.921875q-0.1875 1.234375 -0.859375 1.234375q0 0 -0.25 0.0625q-0.234375 0.046875 -0.234375 0.515625q0 0.96875 -1.4375 2.21875q-1.828125 1.234375 -3.453125 2.015625q-1.625 0.765625 -2.5 0.09375q-0.578125 -0.390625 -1.0625 -0.765625q-0.46875 -0.390625 -0.859375 -0.96875q0 0 -0.234375 -0.421875q-0.234375 -0.4375 -0.234375 -0.828125q0 -0.375 0.28125 -0.703125q0.296875 -0.34375 0.296875 -0.34375q1.34375 -1.25 2.0625 -2.296875q0.71875 -1.0625 1.0 -1.875q0.296875 -0.828125 0.296875 -1.3125q0 -0.5625 -0.25 -0.703125q-0.234375 -0.15625 -1.0 -0.15625q-0.484375 0 -2.078125 0.765625q-1.578125 0.765625 -3.3125 1.875q-1.71875 1.109375 -2.671875 1.96875q-0.390625 0.671875 -0.53125 0.875q-0.140625 0.1875 -0.53125 0.1875q0 -0.390625 -0.484375 0.09375q-0.46875 0.484375 -1.140625 1.34375q-0.671875 0.859375 -1.34375 1.828125q-0.671875 0.953125 -1.0625 1.53125q-0.09375 0.859375 -0.4375 1.578125q-0.328125 0.71875 -0.234375 1.484375q0.09375 0.96875 0.953125 1.84375q0.875 0.859375 2.5 2.203125q3.359375 2.484375 5.03125 3.9375q1.6875 1.4375 2.359375 2.296875q0.671875 0.859375 0.875 1.71875q1.625 2.984375 0.375 5.140625q-1.25 2.15625 -3.84375 3.3125q-0.953125 0.484375 -3.359375 0.90625q-2.390625 0.4375 -5.03125 0.390625q-2.640625 -0.046875 -4.46875 -0.8125zm53.191376 4.890625q-1.15625 0 -1.921875 -1.25q-0.578125 -0.578125 -1.25 -1.828125q-0.671875 -1.234375 -0.4375 -4.0625q0.25 -2.84375 2.0625 -8.3125q0.96875 -3.640625 1.53125 -5.3125q0.578125 -1.6875 0.578125 -2.46875q0 -1.046875 0.234375 -1.765625q0.25 -0.71875 0.25 -1.390625q0.578125 0 1.15625 -1.0625q0.578125 -1.0625 0.953125 -2.875q0.390625 -1.640625 0.71875 -2.640625q0.34375 -1.015625 0.34375 -1.390625q0.484375 -0.765625 1.0 -2.390625q0.53125 -1.640625 1.6875 -3.953125q0.765625 -2.875 1.71875 -6.0q0.96875 -3.125 1.96875 -5.859375q1.015625 -2.734375 1.6875 -4.265625q1.0625 -2.984375 1.625 -4.171875q0.578125 -1.203125 0 -1.59375q-0.671875 -0.46875 -0.625 -2.4375q0.0625 -1.96875 1.78125 -3.40625q1.0625 -1.25 2.6875 -1.78125q1.640625 -0.53125 3.75 -0.53125q2.109375 0 4.40625 0.1875q1.734375 0.109375 3.703125 0.109375q1.96875 0 2.453125 0q0.859375 0.375 2.109375 0.859375q1.25 0.484375 2.25 0.921875q1.015625 0.421875 1.015625 0.703125q0 0.578125 0.421875 0.734375q0.4375 0.140625 0.921875 0.234375q0.671875 0 2.203125 1.203125q1.53125 1.1875 3.109375 2.875q1.59375 1.671875 2.265625 3.3125q0.765625 1.625 1.296875 3.078125q0.53125 1.4375 0.046875 4.125q-0.09375 1.4375 -0.4375 2.875q-0.328125 1.4375 -0.71875 1.921875q-0.5625 0.375 -1.046875 0.953125q-0.484375 0.578125 -0.484375 1.0625q0 0.375 -0.765625 1.875q-0.765625 1.484375 -1.921875 3.359375q-1.15625 1.859375 -2.5 3.6875q-1.34375 1.828125 -2.484375 2.890625q-1.25 1.53125 -2.9375 2.875q-1.671875 1.34375 -3.015625 2.203125q-2.5 1.15625 -5.71875 2.21875q-3.21875 1.046875 -6.203125 1.671875q-2.96875 0.625 -4.78125 0.53125q-2.796875 0.375 -3.65625 0.71875q-0.859375 0.328125 -1.25 1.671875q-0.46875 1.25 -0.90625 2.59375q-0.4375 1.34375 -0.4375 1.921875q-0.1875 0.390625 -0.8125 2.125q-0.625 1.71875 -1.4375 4.03125q-0.8125 2.296875 -1.484375 4.609375q-0.671875 2.296875 -1.0625 3.921875q-0.390625 1.34375 -1.59375 2.015625q-1.1875 0.671875 -2.046875 0.671875zm13.625 -32.0625q0.390625 0.390625 2.5 0.109375q2.109375 -0.296875 5.078125 -1.453125q1.921875 -0.671875 3.890625 -1.625q1.96875 -0.96875 3.796875 -2.125q0.953125 -0.671875 2.015625 -1.671875q1.0625 -1.015625 2.96875 -3.40625q0.296875 -0.484375 1.015625 -1.875q0.71875 -1.390625 1.296875 -2.640625q0.859375 -1.34375 1.71875 -3.984375q0.875 -2.640625 0.390625 -4.359375q-0.484375 -2.5 -1.921875 -4.171875q-1.4375 -1.6875 -3.640625 -2.453125q-2.125 -0.390625 -3.515625 -0.484375q-1.390625 -0.09375 -3.015625 0.1875q-1.53125 0.484375 -2.15625 1.34375q-0.625 0.859375 -1.78125 3.65625q-0.671875 1.34375 -1.921875 3.703125q-1.25 2.34375 -2.109375 4.734375q-1.734375 6.34375 -3.03125 9.703125q-1.296875 3.359375 -1.671875 4.421875q0.09375 1.046875 -0.109375 1.484375q-0.1875 0.421875 0.203125 0.90625zm28.322357 24.578125q-0.390625 -0.765625 -1.6875 -1.53125q-1.296875 -0.765625 -1.296875 -1.15625q0 -0.390625 -0.4375 -1.203125q-0.421875 -0.8125 -0.796875 -1.203125q-0.484375 -0.578125 0.28125 -2.828125q0.765625 -2.25 2.296875 -5.515625q1.546875 -3.265625 3.359375 -6.625q0.78125 -0.765625 1.546875 -2.015625q0.765625 -1.25 1.140625 -1.640625q0 -0.375 0.28125 -0.703125q0.296875 -0.34375 0.6875 -0.34375l0.765625 -1.53125q0.1875 -0.390625 1.1875 -1.546875q1.015625 -1.15625 2.453125 -2.546875q1.453125 -1.390625 2.9375 -2.625q1.484375 -1.25 2.453125 -1.828125q2.015625 -1.34375 4.171875 -1.25q2.15625 0.09375 3.6875 1.34375q0.296875 0.28125 1.296875 1.15625q1.015625 0.859375 2.3125 1.921875q1.296875 1.046875 2.25 1.90625l3.5625 3.171875l-1.640625 4.796875q-1.25 3.84375 -0.625 6.734375q0.625 2.875 1.78125 4.984375q0.484375 1.046875 1.296875 1.625q0.8125 0.578125 2.15625 0.765625q0.765625 0.109375 1.4375 0.59375q0.671875 0.46875 0.671875 1.53125q0 2.296875 -0.8125 3.3125q-0.8125 1.0 -1.78125 1.1875q-3.15625 0.390625 -6.046875 -0.65625q-2.875 -1.0625 -5.1875 -5.484375q-0.375 -0.578125 -1.0 -2.15625q-0.625 -1.578125 -0.71875 -2.0625q-0.390625 0.484375 -1.015625 1.203125q-0.625 0.71875 -1.1875 1.296875q-6.828125 6.90625 -11.671875 8.96875q-4.84375 2.0625 -8.109375 -0.046875zm5.28125 -7.96875q0.671875 0.09375 2.109375 -0.71875q1.4375 -0.8125 3.84375 -2.734375q3.265625 -2.78125 5.375 -4.609375q2.109375 -1.828125 4.125 -4.703125l2.109375 -3.453125q-0.953125 -2.21875 -1.734375 -2.890625q-0.765625 -0.671875 -1.53125 -0.671875q-1.25 0 -2.984375 1.59375q-1.71875 1.578125 -3.875 4.609375q-2.15625 3.015625 -4.84375 7.53125q-1.25 2.109375 -1.921875 4.078125q-0.671875 1.96875 -0.671875 1.96875zm43.675354 28.609375q-1.0625 0.09375 -3.265625 -0.4375q-2.203125 -0.53125 -4.3125 -1.96875q-2.59375 -2.203125 -3.5625 -3.640625q-0.953125 -1.4375 -1.0 -2.546875q-0.046875 -1.109375 0.046875 -1.96875q0.484375 -2.109375 2.0625 -2.015625q1.578125 0.09375 2.453125 0.859375q0.953125 0.78125 2.046875 1.875q1.109375 1.109375 2.21875 1.96875q1.109375 0.859375 1.875 0.765625q1.921875 -0.1875 3.171875 -1.578125q1.25 -1.390625 2.484375 -4.375q0.78125 -2.109375 1.203125 -3.640625q0.4375 -1.53125 0.90625 -3.359375q0.484375 -1.828125 1.15625 -4.90625q0.484375 -2.203125 0.71875 -3.109375q0.25 -0.921875 0.25 -1.15625q0 -0.234375 -0.09375 -0.234375q0 0 -0.671875 0.390625q-0.671875 0.375 -1.875 0.859375q-1.203125 0.46875 -2.640625 0.953125q-2.6875 0.859375 -5.375 1.484375q-2.6875 0.625 -4.125 0.140625q-1.453125 -0.5625 -2.3125 -1.90625q-0.859375 -1.34375 -1.109375 -2.875q-0.234375 -1.546875 -0.140625 -2.5q0.203125 -0.78125 0.875 -2.5q0.671875 -1.734375 1.53125 -3.65625q0.859375 -1.921875 1.625 -3.359375q0.765625 -1.4375 1.25 -1.53125q0.390625 -0.1875 0.71875 -0.8125q0.34375 -0.625 0.34375 -1.015625q0.09375 -0.375 0.8125 -1.234375q0.71875 -0.875 4.265625 -3.375q3.5625 -3.359375 6.4375 -5.03125q2.875 -1.6875 5.28125 -1.875q0.671875 0.09375 1.296875 0.09375q0.625 0 0.625 0q0 0 1.046875 0.296875q1.0625 0.28125 2.125 0.765625q1.234375 0.46875 2.671875 2.25q1.453125 1.78125 2.5 3.890625q1.0625 2.109375 1.15625 3.84375q-0.09375 2.109375 -0.96875 4.21875q-0.859375 2.109375 -1.625 2.015625q-0.765625 -0.09375 -1.6875 0.53125q-0.90625 0.625 -1.375 2.34375q-0.296875 0.390625 -0.6875 1.203125q-0.375 0.8125 -0.859375 1.59375q-0.09375 0.46875 -0.484375 2.34375q-0.375 1.875 -0.90625 4.140625q-0.53125 2.25 -0.921875 4.125q-0.375 1.859375 -0.46875 2.4375q-0.09375 0.390625 -0.484375 1.78125q-0.375 1.390625 -0.90625 3.109375q-0.53125 1.734375 -1.109375 3.171875q-0.375 2.78125 -1.53125 4.84375q-1.15625 2.078125 -2.5 3.703125q-2.203125 2.40625 -4.359375 3.40625q-2.15625 1.015625 -3.796875 1.203125zm-1.828125 -33.59375q0.296875 0.765625 1.59375 0.578125q1.296875 -0.203125 3.59375 -0.875q2.78125 -1.15625 4.171875 -1.828125q1.390625 -0.671875 2.171875 -1.71875q0.5625 -0.765625 1.09375 -1.53125q0.53125 -0.78125 1.015625 -1.359375q0.1875 -0.1875 0.609375 -0.65625q0.4375 -0.484375 0.734375 -0.875q0.578125 -0.375 1.0 -0.703125q0.4375 -0.34375 0.828125 -0.640625q0.46875 -0.1875 0.84375 -0.90625q0.390625 -0.71875 0.203125 -1.484375q-0.09375 -0.671875 -0.859375 -1.875q-0.765625 -1.203125 -2.109375 -1.875q-1.25 -0.765625 -2.9375 1.0625q-1.671875 1.8125 -5.328125 4.890625q-2.109375 2.296875 -3.75 4.265625q-1.625 1.96875 -2.390625 3.359375q-0.765625 1.390625 -0.484375 2.171875zm38.022125 16.703125q-5.28125 0 -8.109375 -3.078125q-2.828125 -3.078125 -2.828125 -9.40625q0 -3.453125 1.28125 -7.578125q1.296875 -4.140625 3.453125 -8.078125q2.171875 -3.9375 4.765625 -6.859375q2.59375 -2.921875 5.1875 -4.078125q0.953125 -0.484375 2.046875 -0.71875q1.109375 -0.234375 2.171875 -0.234375q1.15625 0 2.546875 0.140625q1.390625 0.140625 2.640625 0.625q2.203125 0.671875 3.875 2.59375q1.6875 1.90625 1.6875 5.5625q0 0.953125 -0.203125 2.0625q-0.1875 1.109375 -0.65625 2.15625q-1.25 3.171875 -3.796875 6.0625q-2.546875 2.875 -5.328125 4.015625q-0.765625 0.390625 -1.484375 0.53125q-0.71875 0.140625 -1.484375 0.140625q-2.015625 0 -3.609375 -0.5625q-1.578125 -0.578125 -2.921875 -1.546875l-0.765625 -0.671875l-0.484375 0.96875q-0.671875 1.8125 -0.921875 3.0625q-0.234375 1.25 -0.234375 1.828125q0 1.15625 0.09375 2.359375q0.09375 1.1875 0.578125 1.953125q0.390625 0.484375 1.015625 0.78125q0.625 0.28125 1.578125 0.28125q0.578125 0 1.109375 -0.046875q0.53125 -0.046875 0.90625 -0.140625q1.734375 -0.390625 2.828125 -1.296875q1.109375 -0.921875 2.359375 -1.59375l0.375 -0.1875l-0.09375 -0.28125q1.640625 -0.875 2.203125 -1.109375q0.578125 -0.234375 0.875 -0.4375q0.390625 -0.375 0.859375 -0.375q1.34375 -0.1875 2.640625 0.71875q1.296875 0.90625 1.296875 2.25q0 0.578125 -0.8125 1.828125q-0.8125 1.25 -2.015625 2.453125q-1.203125 1.203125 -2.453125 1.875q-0.28125 0.09375 -0.578125 0.234375q-0.28125 0.140625 -0.578125 0.328125l0.109375 0q-0.875 1.15625 -1.734375 1.15625l-0.765625 0q-0.390625 0.671875 -2.5 1.484375q-2.109375 0.828125 -4.125 0.828125zm4.984375 -23.140625q0.875 0 1.59375 -0.28125q0.71875 -0.296875 1.390625 -0.6875q2.296875 -1.625 2.96875 -4.21875q0.671875 -2.59375 -0.46875 -3.9375q-0.203125 -0.28125 -0.5 -0.421875q-0.28125 -0.15625 -0.65625 -0.15625q-1.0625 0 -2.359375 0.671875q-1.296875 0.671875 -2.546875 1.921875q-1.234375 1.25 -2.296875 2.984375l-1.25 2.015625q0.203125 -0.09375 0.34375 -0.140625q0.140625 -0.0625 0.234375 -0.0625q0.859375 0 1.140625 0.578125q0.296875 0.578125 0.734375 1.15625q0.4375 0.578125 1.671875 0.578125zm26.89209 22.078125q-5.09375 0 -7.5 -3.265625q-0.671875 -1.53125 -0.625 -3.109375q0.0625 -1.59375 0.734375 -2.3125q0.671875 -0.71875 1.625 0.328125q1.25 0.78125 3.546875 0.78125q1.15625 0 2.0625 -0.046875q0.921875 -0.0625 2.171875 -0.15625q2.203125 -0.1875 2.828125 -1.328125q0.625 -1.15625 -0.34375 -1.9375l0.109375 0q-2.59375 -0.671875 -5.09375 -1.90625q-2.5 -1.25 -4.234375 -2.828125q-1.71875 -1.59375 -2.0 -3.03125q-0.78125 -3.171875 0.375 -6.53125q1.15625 -3.359375 3.359375 -5.859375q0.859375 -0.578125 2.390625 -1.671875q1.546875 -1.109375 2.21875 -1.203125l0 0.09375q1.828125 -1.921875 4.125 -3.109375q2.3125 -1.203125 5.375 -2.265625l1.546875 -0.1875q1.140625 -0.203125 2.015625 -0.203125q-0.09375 0 0.46875 0.203125q0.578125 0.1875 0.96875 0.28125q0.578125 0.296875 1.15625 0.296875q1.34375 0.1875 2.625 1.390625q1.296875 1.1875 2.109375 2.78125q0.828125 1.578125 0.640625 2.921875q-0.296875 2.21875 -1.640625 4.375q-1.34375 2.15625 -2.875 2.4375q0.1875 -0.09375 -0.390625 -0.375q-0.578125 -0.296875 -1.046875 -0.578125l-0.390625 0.1875q0 0 -0.046875 -0.28125q-0.046875 -0.296875 -0.234375 -0.671875q-0.390625 -0.671875 -0.53125 -1.4375q-0.140625 -0.765625 -0.046875 -1.734375q0.1875 -1.0625 0.09375 -1.25q-0.09375 -0.1875 -1.15625 -0.28125q-1.25 -0.296875 -3.171875 0.234375q-1.90625 0.53125 -3.546875 1.78125q-1.921875 1.25 -2.828125 2.015625q-0.90625 0.765625 -1.390625 1.484375q-0.484375 0.71875 -1.0625 2.0625q-0.375 0.671875 -0.671875 1.203125q-0.28125 0.53125 -0.28125 1.0q0 0.96875 1.625 1.984375q1.640625 1.0 4.90625 2.34375q2.578125 1.0625 3.390625 2.890625q0.828125 1.8125 1.5 3.4375q0.1875 0.390625 0.421875 1.40625q0.25 1.0 0.0625 1.1875q0.1875 0.203125 0.1875 0.390625l0 -0.09375q0.765625 1.4375 -0.25 3.03125q-1.0 1.578125 -3.109375 2.875q-2.109375 1.296875 -4.796875 1.859375l0.09375 0q-1.4375 0.203125 -2.828125 0.296875q-1.390625 0.09375 -2.640625 0.09375z" fill-rule="nonzero"/></g></svg>